<svg xmlns="http://www.w3.org/2000/svg" xmlns:xlink="http://www.w3.org/1999/xlink" width="500" zoomAndPan="magnify" viewBox="0 0 375 374.999991" height="500" preserveAspectRatio="xMidYMid meet" version="1.0"><defs><clipPath id="f97427f4ee"><path d="M 0 75 L 373.5 75 L 373.5 375 L 0 375 Z M 0 75 " clip-rule="nonzero"/></clipPath></defs><g clip-path="url(#f97427f4ee)"><path fill="#209d5c" d="M 280.855469 174.332031 C 280.855469 158.605469 296.078125 145.855469 314.863281 145.855469 C 333.640625 145.855469 348.863281 158.609375 348.863281 174.332031 C 348.863281 190.058594 333.640625 202.8125 314.863281 202.8125 C 296.078125 202.8125 280.855469 190.058594 280.855469 174.332031 Z M 328.535156 214.347656 C 247.707031 292.011719 298.847656 216.925781 238.273438 75.015625 C 281.894531 410.105469 -20.929688 411.03125 9.890625 227.609375 C -60.78125 433.949219 268.632812 433.246094 373.449219 164.316406 C 353.484375 183.859375 341.054688 202.3125 328.535156 214.347656 Z M 328.535156 214.347656 " fill-opacity="1" fill-rule="evenodd"/></g><path fill="#06327d" d="M 58.570312 262.675781 L 24.199219 262.675781 C 25.296875 276.21875 28.855469 289.585938 35.984375 301.574219 C 41.484375 310.828125 49.054688 318.996094 58.570312 325.117188 Z M 58.570312 262.675781 " fill-opacity="1" fill-rule="evenodd"/><path fill="#06327d" d="M 68.640625 211.339844 L 68.640625 330.480469 C 71.878906 331.878906 75.289062 333.066406 78.871094 334.011719 C 90.164062 337.003906 101.828125 337.269531 113.140625 335.378906 L 113.140625 211.335938 L 68.640625 211.335938 Z M 68.640625 211.339844 " fill-opacity="1" fill-rule="evenodd"/><path fill="#06327d" d="M 123.214844 166.335938 L 123.214844 333.105469 C 125.480469 332.464844 127.722656 331.742188 129.933594 330.9375 C 144.421875 325.664062 157.046875 317.316406 167.714844 307.511719 L 167.714844 166.339844 L 123.214844 166.339844 Z M 123.214844 166.335938 " fill-opacity="1" fill-rule="evenodd"/><path fill="#06327d" d="M 177.789062 102.34375 L 177.789062 297.210938 C 179.363281 295.425781 180.882812 293.617188 182.339844 291.785156 C 204.550781 263.96875 216.644531 229.402344 222.289062 193.550781 L 222.289062 102.34375 Z M 177.789062 102.34375 " fill-opacity="1" fill-rule="evenodd"/><path fill="#000000" d="M 20.730469 244.351562 C 18.648438 246.582031 15.15625 246.695312 12.929688 244.613281 C 10.703125 242.527344 10.585938 239.035156 12.667969 236.808594 L 52.886719 193.789062 C 53.972656 192.625 55.441406 192.039062 56.914062 192.039062 L 56.914062 192.011719 L 94.359375 192.011719 L 94.359375 151.769531 C 94.359375 148.703125 96.84375 146.214844 99.90625 146.214844 L 153.296875 146.214844 L 153.296875 87.585938 C 153.296875 84.519531 155.78125 82.035156 158.84375 82.035156 L 209.425781 82.035156 L 272.265625 25.441406 L 260.777344 13.554688 L 260.78125 13.554688 C 260.109375 12.855469 259.644531 11.941406 259.511719 10.90625 C 259.175781 8.335938 260.988281 5.980469 263.554688 5.648438 L 304.914062 0.109375 C 305.5 -0.0195312 306.125 -0.0390625 306.753906 0.0742188 C 309.308594 0.53125 311.015625 2.976562 310.558594 5.539062 L 303.203125 46.742188 L 303.191406 46.742188 C 303.023438 47.683594 302.566406 48.585938 301.824219 49.300781 C 299.957031 51.097656 296.984375 51.039062 295.1875 49.171875 L 279.96875 33.417969 L 215.46875 91.503906 C 214.464844 92.511719 213.074219 93.136719 211.539062 93.136719 L 164.390625 93.136719 L 164.390625 151.769531 C 164.390625 154.832031 161.90625 157.320312 158.839844 157.320312 L 105.453125 157.320312 L 105.453125 197.5625 C 105.453125 200.628906 102.96875 203.113281 99.902344 203.113281 L 59.28125 203.113281 L 20.726562 244.355469 Z M 20.730469 244.351562 " fill-opacity="1" fill-rule="nonzero"/></svg>